#N canvas 1347 39 572 453 10;
#X obj 92 0 inlet;
#X obj 102 141 * 6.28319;
#X obj 102 171 t f f;
#X obj 72 201 cos;
#X obj 72 291 outlet;
#X obj 132 291 outlet;
#X obj 128 200 sin;
#X obj 72 231 + 7;
#X obj 132 231 + 7;
#X obj 72 261 / 14;
#X obj 132 261 / 14;
#X obj 189 228 * 2;
#X floatatom 192 128 5 0 0 0 - - - 0;
#X obj 242 -6 inlet;
#X obj 127 101 delay 10;
#X obj 247 66 expr 50 - $f1;
#X obj 248 43 + 1;
#X obj 246 20 * 45, f 5;
#X obj 92 23 + 0.75;
#X connect 0 0 18 0;
#X connect 1 0 2 0;
#X connect 2 0 3 0;
#X connect 2 1 6 0;
#X connect 3 0 7 0;
#X connect 6 0 8 0;
#X connect 7 0 9 0;
#X connect 8 0 10 0;
#X connect 9 0 4 0;
#X connect 10 0 5 0;
#X connect 11 0 10 1;
#X connect 11 0 9 1;
#X connect 12 0 11 0;
#X connect 12 0 8 1;
#X connect 12 0 7 1;
#X connect 12 0 14 0;
#X connect 13 0 17 0;
#X connect 14 0 1 0;
#X connect 15 0 12 0;
#X connect 16 0 15 0;
#X connect 17 0 16 0;
#X connect 18 0 1 0;
