#N canvas 0 0 1920 804 12;
#X declare -lib ggee;
#X declare -path ggee;
#X obj 73 1 r cmd;
#X obj 702 106 loadbang;
#X msg 702 131 \; pd dsp 1;
#X msg -77 684 start;
#X msg -14 683 stop;
#X obj -249 826 stdout;
#X obj -246 457 shell;
#X msg -246 431 date +%Y-%m-%d_%H-%M-%S;
#X obj -246 482 list prepend symbol;
#X obj -246 507 list trim;
#X obj -283 629 makefilename;
#X obj -300 384 t f b;
#X obj 687 12 declare -lib ggee;
#X obj 700 44 declare -path ggee;
#X obj 73 26 route test_ID start_rec stop_rec yaw pitch roll azimuth elevation pan, f 70;
#X obj -124 364 delay 300;
#X obj -141 260 t b f;
#X obj -318 431 pipe 100;
#X obj -201 259 bng 20 250 50 0 empty empty empty 0 -10 0 12 #fcfcfc #000000 #000000;
#X obj -152 590 loadbang;
#X msg -152 615 data recorder started;
#N canvas 0 0 1920 969 data 0;
#X obj 318 586 writesf~ 6, f 11;
#X obj 309 444 sig~;
#X obj 351 443 sig~;
#X obj 395 443 sig~;
#X obj 437 442 sig~;
#X obj 480 443 sig~;
#X obj 522 442 sig~;
#X obj 275 173 inlet;
#X obj 323 174 inlet;
#X obj 376 174 inlet;
#X obj 424 175 inlet;
#X obj 473 174 inlet;
#X obj 521 175 inlet;
#X obj 212 174 inlet;
#X obj 605 256 block~ 128 1 0.0078125;
#X text 797 223 Undersampling \; 0.125 \; 0.0625 \; 0.015625 \; 0.03125 \; 0.0078125 \;;
#X connect 1 0 0 0;
#X connect 2 0 0 1;
#X connect 3 0 0 2;
#X connect 4 0 0 3;
#X connect 5 0 0 4;
#X connect 6 0 0 5;
#X connect 7 0 1 0;
#X connect 8 0 2 0;
#X connect 9 0 3 0;
#X connect 10 0 4 0;
#X connect 11 0 5 0;
#X connect 12 0 6 0;
#X connect 13 0 0 0;
#X restore 504 733 pd data;
#X f 30;
#X msg 330 632 start;
#X msg 393 631 stop;
#X obj 158 774 stdout;
#X obj 161 405 shell;
#X msg 161 379 date +%Y-%m-%d_%H-%M-%S;
#X obj 161 430 list prepend symbol;
#X obj 161 455 list trim;
#X obj 124 577 makefilename;
#X obj 107 332 t f b;
#X msg 159 484 set /home/carlo/tesi/recordings/%s_data_\$1.wav;
#X obj 283 312 delay 300;
#X obj 194 222 t b f;
#X obj 89 379 pipe 100;
#X obj 154 220 bng 20 250 50 0 empty empty empty 0 -10 0 12 #fcfcfc #000000 #000000;
#X obj 255 538 loadbang;
#X msg 255 563 data recorder started;
#X msg -231 684 open -rate 44100 \$1;
#X msg -248 536 set /home/carlo/tesi/recordings/%s_audio_\$1.wav;
#X obj -4 822 writesf~ 3;
#X obj 24 742 adc~ 1 2 3;
#X msg 176 632 open \$1;
#X connect 0 0 14 0;
#X connect 1 0 2 0;
#X connect 3 0 5 0;
#X connect 3 0 40 0;
#X connect 4 0 5 0;
#X connect 4 0 40 0;
#X connect 6 0 8 0;
#X connect 7 0 6 0;
#X connect 8 0 9 0;
#X connect 9 0 39 0;
#X connect 10 0 38 0;
#X connect 10 0 5 0;
#X connect 11 0 17 0;
#X connect 11 1 7 0;
#X connect 14 0 18 0;
#X connect 14 0 35 0;
#X connect 14 1 16 0;
#X connect 14 1 33 0;
#X connect 14 2 4 0;
#X connect 14 2 23 0;
#X connect 14 3 21 1;
#X connect 14 4 21 2;
#X connect 14 5 21 3;
#X connect 14 6 21 4;
#X connect 14 7 21 5;
#X connect 14 8 21 6;
#X connect 15 0 3 0;
#X connect 16 0 15 0;
#X connect 16 1 11 0;
#X connect 17 0 10 0;
#X connect 18 0 7 0;
#X connect 19 0 20 0;
#X connect 20 0 5 0;
#X connect 22 0 24 0;
#X connect 22 0 21 0;
#X connect 23 0 24 0;
#X connect 23 0 21 0;
#X connect 25 0 27 0;
#X connect 26 0 25 0;
#X connect 27 0 28 0;
#X connect 28 0 31 0;
#X connect 29 0 42 0;
#X connect 29 0 24 0;
#X connect 30 0 34 0;
#X connect 30 1 26 0;
#X connect 31 0 29 0;
#X connect 31 0 24 0;
#X connect 32 0 22 0;
#X connect 33 0 32 0;
#X connect 33 1 30 0;
#X connect 34 0 29 0;
#X connect 35 0 26 0;
#X connect 36 0 37 0;
#X connect 37 0 24 0;
#X connect 38 0 40 0;
#X connect 39 0 10 0;
#X connect 39 0 5 0;
#X connect 41 0 40 0;
#X connect 41 1 40 1;
#X connect 41 2 40 2;
#X connect 42 0 21 0;
