#N canvas 1132 34 1318 1098 12;
#X obj 100 100 cnv 20 450 370 empty empty empty 20 12 0 12 #e0e0e0 #404040 0;
#X obj -558 -4 *~;
#X obj -541 -57 line~;
#X obj -559 -176 *~;
#X obj -537 -199 line~;
#X obj -537 -253 == 0;
#X text -536 -302 mute PP when CTA is speaking;
#X obj -541 -109 r pp_open_\$0;
#X obj -537 -279 r cta_open_\$0;
#N canvas 505 427 1920 969 timbre 0;
#X obj 102 346 inlet~;
#X obj 103 685 outlet~;
#X obj 218 557 *~;
#X obj 293 529 line~;
#X msg 240 476 1 2;
#X msg 277 475 0 2;
#X obj 261 443 del 100;
#X obj 326 399 r sq_len_\$0;
#X text 191 585 adds squelch when communication starts and stops;
#X obj 247 375 r start_stop_\$0;
#X obj 215 529 readsf~;
#X obj 260 404 t b b b;
#X msg 373 466 open ./samples/squelch1.wav \, start;
#X connect 0 0 1 0;
#X connect 2 0 1 0;
#X connect 3 0 2 1;
#X connect 4 0 3 0;
#X connect 5 0 3 0;
#X connect 6 0 5 0;
#X connect 7 0 6 1;
#X connect 9 0 11 0;
#X connect 10 0 2 0;
#X connect 11 0 4 0;
#X connect 11 1 6 0;
#X connect 11 2 12 0;
#X connect 12 0 10 0;
#X restore -558 -333 pd timbre;
#X obj -968 337 *~;
#X obj -949 309 line~;
#X obj -967 170 *~;
#X obj -950 125 line~;
#X obj -950 70 == 0;
#X text -950 19 mute CTA when PP is speaking;
#X obj -950 42 r pp_open_\$0;
#X obj -949 228 r cta_open_\$0;
#X obj -533 80 s~ rec_cta_\$0;
#X obj -948 369 s~ rec_pp_\$0;
#X floatatom 416 391 5 0 0 0 - loadbang_0_\$0 test_ID_\$0 0;
#X obj 416 443 tgl 20 0 start_stop_rec_\$0 empty empty 0 -10 0 12 #fcfcfc #000000 #000000 0 1;
#N canvas 740 269 1081 748 network 0;
#X text 355 41 from Interfaccia_PP;
#X msg 451 367 devicename /dev/ttyUSB0 \, baud 9600;
#X text 444 338 from CTA PTT;
#X obj 126 94 fudiparse;
#X obj 137 69 netreceive -b -u 4010;
#X obj 452 392 comport /dev/ttyUSB*;
#X obj 306 -64 fudiparse;
#X text 336 -121 from HeadTracker;
#X obj 273 5 s yaw_\$0;
#X obj 342 4 s pitch_\$0;
#X obj 423 3 s roll_\$0;
#X obj 320 -36 unpack 0 0 0;
#X obj 320 -91 netreceive -b -u 4020;
#X obj 822 -31 fudiparse;
#X obj 822 -60 netreceive -b -u 4012;
#X obj 106 151 sel -1;
#X obj 215 152 sel -1;
#X text 108 201 0-360 clockwise;
#X obj 108 181 s asterix_azimuth_\$0;
#X obj 268 182 s asterix_elevation_\$0;
#X text 270 202 0-360 clockwise;
#X obj 122 121 unpack 0 0;
#X obj 447 247 s pp_ptt_\$0;
#X obj 447 112 fudiparse;
#X obj 447 79 netreceive -b -u 4011;
#X obj 823 1 s cta_pan_\$0;
#X obj 447 188 t b b;
#X msg 447 214 1;
#X msg 492 214 0;
#X obj 477 481 t b b;
#X msg 477 507 1;
#X msg 522 507 0;
#X obj 724 481 t b b;
#X msg 724 507 1;
#X msg 769 507 0;
#X obj 477 540 s cta_ptt_\$0;
#X obj 724 540 s cta_phone_\$0;
#X obj 656 189 t b b;
#X msg 656 215 1;
#X msg 701 215 0;
#X obj 656 248 s apch_phone_\$0;
#X obj 777 189 loadbang;
#X msg 777 214 0;
#X obj 565 186 loadbang;
#X msg 565 211 0;
#X obj 411 481 loadbang;
#X msg 411 506 0;
#X obj 649 482 loadbang;
#X msg 649 507 0;
#X text 521 112 48 (ASCII for 0) if ptt of PP is clicked;
#X text 521 136 49 (ASCII for 1) if phone of APCH is clicked;
#X text 640 406 48 (ASCII for 0) if ptt of CTA is clicked;
#X text 641 429 49 (ASCII for 1) if phone of CTA is clicked;
#X obj 522 481 delay 100;
#X obj 769 481 delay 100;
#X obj 701 189 delay 100;
#X obj 492 188 delay 100;
#X obj 447 137 sel 0 1;
#X obj 553 430 sel 48 49;
#X connect 1 0 5 0;
#X connect 3 0 21 0;
#X connect 4 0 3 0;
#X connect 5 0 58 0;
#X connect 6 0 11 0;
#X connect 11 0 8 0;
#X connect 11 1 9 0;
#X connect 11 2 10 0;
#X connect 12 0 6 0;
#X connect 13 0 25 0;
#X connect 14 0 13 0;
#X connect 15 1 18 0;
#X connect 16 1 19 0;
#X connect 21 0 15 0;
#X connect 21 1 16 0;
#X connect 23 0 57 0;
#X connect 24 0 23 0;
#X connect 26 0 27 0;
#X connect 26 1 56 0;
#X connect 27 0 22 0;
#X connect 28 0 22 0;
#X connect 29 0 30 0;
#X connect 29 1 53 0;
#X connect 30 0 35 0;
#X connect 31 0 35 0;
#X connect 32 0 33 0;
#X connect 32 1 54 0;
#X connect 33 0 36 0;
#X connect 34 0 36 0;
#X connect 37 0 38 0;
#X connect 37 1 55 0;
#X connect 38 0 40 0;
#X connect 39 0 40 0;
#X connect 41 0 42 0;
#X connect 42 0 40 0;
#X connect 43 0 44 0;
#X connect 44 0 22 0;
#X connect 45 0 46 0;
#X connect 46 0 35 0;
#X connect 47 0 48 0;
#X connect 48 0 36 0;
#X connect 53 0 31 0;
#X connect 54 0 34 0;
#X connect 55 0 39 0;
#X connect 56 0 28 0;
#X connect 57 0 26 0;
#X connect 57 1 37 0;
#X connect 58 0 29 0;
#X connect 58 1 32 0;
#X restore 697 -191 pd network;
#N canvas 440 522 1428 717 recordings 0;
#X text -795 14 cta_input;
#X text -695 12 pp_input;
#X text 698 269 test_ID;
#X obj 386 285 sel 1 0;
#X text 358 227 start_stop;
#X obj 692 292 r test_ID_\$0;
#X obj 358 249 r start_stop_rec_\$0;
#X obj -694 35 r~ rec_pp_\$0;
#X obj -793 36 r~ rec_cta_\$0;
#X msg 113 389 pd~ stop;
#X msg 692 337 cmd test_ID \$1;
#X msg 519 337 cmd stop_rec;
#X obj 101 227 r start_stop_logger_\$0;
#X obj 102 256 sel 1 0;
#X text 148 206 logger;
#X obj -602 36 r~ rec_apch_\$0;
#X obj -136 8 r azimuth_\$0;
#X obj -37 8 r elevation_\$0;
#X obj -461 7 r yaw_\$0;
#X obj -253 8 r roll_\$0;
#X obj -370 9 r pitch_\$0;
#X msg -461 39 cmd yaw \$1;
#X msg -370 40 cmd pitch \$1;
#X msg -254 40 cmd roll \$1;
#X msg -145 41 cmd azimuth \$1;
#X msg -27 41 cmd elevation \$1;
#X msg 119 40 cmd pan \$1;
#X msg 82 320 pd~ start -nogui data_recorder.pd;
#X obj -215 635 print DATA_RECORDER;
#X obj -213 610 pd~ -ninsig 3 -noutsig 0 -fifo 40 -sr 44100;
#X obj 119 7 r pan_\$0;
#X obj 374 323 f;
#X msg 349 353 cmd start_rec \$1;
#X connect 3 0 31 0;
#X connect 3 1 11 0;
#X connect 5 0 10 0;
#X connect 5 0 31 1;
#X connect 6 0 3 0;
#X connect 7 0 29 1;
#X connect 8 0 29 0;
#X connect 9 0 29 0;
#X connect 10 0 29 0;
#X connect 11 0 29 0;
#X connect 12 0 13 0;
#X connect 13 0 27 0;
#X connect 13 1 9 0;
#X connect 15 0 29 2;
#X connect 16 0 24 0;
#X connect 17 0 25 0;
#X connect 18 0 21 0;
#X connect 19 0 23 0;
#X connect 20 0 22 0;
#X connect 21 0 29 0;
#X connect 22 0 29 0;
#X connect 23 0 29 0;
#X connect 24 0 29 0;
#X connect 25 0 29 0;
#X connect 26 0 29 0;
#X connect 27 0 29 0;
#X connect 29 0 28 0;
#X connect 30 0 26 0;
#X connect 31 0 32 0;
#X connect 32 0 29 0;
#X restore 674 -165 pd recordings;
#X obj 416 418 tgl 20 0 start_stop_logger_\$0 empty empty 0 -10 0 12 #fcfcfc #000000 #000000 0 1;
#X obj 388 322 tgl 20 0 on_off_binaural_\$0 loadbang_1_\$0 empty 0 -10 0 12 #fcfcfc #000000 #000000 0 1;
#X obj 388 287 tgl 15 0 open_binaural_\$0 empty empty 0 -10 0 12 #fcfcfc #000000 #000000 0 1;
#N canvas 431 118 1440 717 meter 0;
#X floatatom -39 20 8 0 0 0 - - - 0;
#X obj 106 141 vu 15 120 empty empty -1 -8 0 10 #404040 #000000 1 0;
#X obj -40 46 - 100;
#X floatatom 77 21 8 0 0 0 - - - 0;
#X obj 76 47 - 100;
#X text 124 119 PP;
#X obj 76 -9 env~ 8192 4096;
#X obj -40 -10 env~ 8192 4096;
#X obj 124 136 cnv 20 30 130 empty empty empty 20 12 0 12 #dfdfdf #404040 0;
#X obj 126 141 vu 15 120 empty empty -1 -8 0 10 #404040 #000000 1 0;
#X text 105 119 CI;
#X floatatom 197 22 8 0 0 0 - - - 0;
#X obj 196 48 - 100;
#X obj 196 -8 env~ 8192 4096;
#X obj 145 136 cnv 20 30 130 empty empty empty 20 12 0 12 #dfdfdf #404040 0;
#X obj 147 141 vu 15 120 empty empty -1 -8 0 10 #404040 #000000 1 0;
#X text 145 119 APCH;
#X obj -33 -45 r~ cta_mic_\$0;
#X obj 104 -45 r~ pp_mic_\$0;
#X obj 210 -44 r~ apch_mic_\$0;
#X floatatom 463 22 8 0 0 0 - - - 0;
#X obj 462 48 - 100;
#X floatatom 598 19 8 0 0 0 - - - 0;
#X obj 597 45 - 100;
#X text 252 117 PP;
#X obj 913 -16 switch~;
#X obj 597 -11 env~ 8192 4096;
#X obj 462 -8 env~ 8192 4096;
#X floatatom 322 20 8 0 0 0 - - - 0;
#X obj 321 46 - 100;
#X obj 323 -9 env~ 8192 4096;
#X obj 215 136 cnv 20 30 130 empty empty empty 20 12 0 12 #dfdfdf #404040 0;
#X obj 218 141 vu 10 120 empty empty -1 -8 0 10 #404040 #000000 1 0;
#X obj 230 136 cnv 20 30 130 empty empty empty 20 12 0 12 #dfdfdf #404040 0;
#X obj 232 141 vu 10 120 empty empty -1 -8 0 10 #404040 #000000 1 0;
#X obj 244 134 cnv 20 30 130 empty empty empty 20 12 0 12 #dfdfdf #404040 0;
#X obj 269 142 vu 15 120 empty empty -1 -8 0 10 #404040 #000000 1 0;
#X obj 324 -38 r~ cta_hp_L_\$0;
#X obj 458 -39 r~ cta_hp_R_\$0;
#X obj 598 -40 r~ pp_hp_\$0;
#X obj 237 387 s pp_output_volume_\$0;
#X obj 180 362 s cta_output_volume_\$0;
#X floatatom 180 332 5 0 0 0 - - - 0;
#X floatatom 238 333 5 0 0 0 - - - 0;
#X obj 203 141 vsl 10 120 0 1 0 0 empty empty empty 0 -9 0 12 #fcfcfc #000000 #000000 0 1;
#X obj 181 302 pow 2;
#X obj 254 141 vsl 10 120 0 1 0 0 empty empty empty 0 -9 0 12 #fcfcfc #000000 #000000 0 1;
#X obj 239 302 pow 2;
#X obj 856 69 loadbang;
#X msg 840 110 0.7;
#X text 202 118 CTA;
#X obj 286 135 cnv 20 30 130 empty empty empty 20 12 0 12 #dfdfdf #404040 0;
#X obj 311 142 vu 15 120 empty empty -1 -8 0 10 #404040 #000000 1 0;
#X obj 296 141 vsl 10 120 0 1 0 0 empty empty empty 0 -9 0 12 #fcfcfc #000000 #000000 0 1;
#X floatatom 737 20 8 0 0 0 - - - 0;
#X obj 736 46 - 100;
#X obj 736 -10 env~ 8192 4096;
#X text 294 118 APCH;
#X obj 737 -39 r~ apch_hp_\$0;
#X floatatom 288 333 5 0 0 0 - - - 0;
#X obj 289 302 pow 2;
#X obj 288 418 s apch_output_volume_\$0;
#X obj 867 -16 sel 0;
#X msg 869 25 0;
#X text 104 101 INPUT;
#X text 201 101 OUTPUT;
#X obj 340 103 tgl 15 0 empty empty empty 0 -10 0 12 #fcfcfc #000000 #000000 0 1;
#X obj 472 168 loadbang;
#X msg 438 199 1;
#X connect 0 0 2 0;
#X connect 2 0 1 0;
#X connect 3 0 4 0;
#X connect 4 0 9 0;
#X connect 6 0 3 0;
#X connect 7 0 0 0;
#X connect 11 0 12 0;
#X connect 12 0 15 0;
#X connect 13 0 11 0;
#X connect 17 0 7 0;
#X connect 18 0 6 0;
#X connect 19 0 13 0;
#X connect 20 0 21 0;
#X connect 21 0 34 0;
#X connect 22 0 23 0;
#X connect 23 0 36 0;
#X connect 26 0 22 0;
#X connect 27 0 20 0;
#X connect 28 0 29 0;
#X connect 29 0 32 0;
#X connect 30 0 28 0;
#X connect 37 0 30 0;
#X connect 38 0 27 0;
#X connect 39 0 26 0;
#X connect 42 0 41 0;
#X connect 43 0 40 0;
#X connect 44 0 45 0;
#X connect 45 0 42 0;
#X connect 46 0 47 0;
#X connect 47 0 43 0;
#X connect 48 0 49 0;
#X connect 49 0 44 0;
#X connect 49 0 53 0;
#X connect 49 0 46 0;
#X connect 53 0 60 0;
#X connect 54 0 55 0;
#X connect 55 0 52 0;
#X connect 56 0 54 0;
#X connect 58 0 56 0;
#X connect 59 0 61 0;
#X connect 60 0 59 0;
#X connect 62 0 63 0;
#X connect 63 0 55 0;
#X connect 63 0 23 0;
#X connect 63 0 21 0;
#X connect 63 0 29 0;
#X connect 63 0 4 0;
#X connect 63 0 12 0;
#X connect 66 0 62 0;
#X connect 66 0 25 0;
#X connect 67 0 68 0;
#X connect 68 0 66 0;
#X coords 0 -1 1 1 260 170 2 100 100;
#X restore 108 291 pd meter;
#X obj -968 445 *~;
#X obj -953 408 r pp_output_volume_\$0;
#X obj 111 264 tgl 20 0 cta_open_\$0 cta_ptt_\$0 empty 0 -10 0 12 #fcfcfc #000000 #000000 0 1;
#X obj 139 264 tgl 20 0 pp_activate_\$0 pp_ptt_\$0 empty 0 -10 0 12 #fcfcfc #000000 #000000 0 1;
#X text 406 285 OPEN;
#X text 412 321 ON/OFF;
#X text 455 391 TEST_ID;
#X obj 315 148 hsl 200 10 0 1 0 0 empty loadbang_05_\$0 empty -2 -10 0 12 #fcfcfc #000000 #000000 0 1;
#X text 106 244 CTA;
#X text 138 243 PP;
#X obj 315 200 hsl 200 10 0 1 0 0 azimuth_\$0 loadbang_05_\$0 empty -2 -10 0 12 #fcfcfc #000000 #000000 0 1;
#X obj 595 223 s azimuth_\$0;
#X text 408 177 0°;
#X text 357 177 90°;
#X text 308 178 180°;
#X text 444 177 -90°;
#X text 487 178 -180°;
#X obj -496 600 s~ cta_hp_L_\$0;
#X obj -376 599 s~ cta_hp_R_\$0;
#X obj -944 487 s~ pp_hp_\$0;
#X obj -533 531 *~;
#X obj -456 532 *~;
#X obj -399 259 r cta_output_volume_\$0;
#X text 501 165 R;
#X text 316 164 L;
#X obj 315 246 hsl 200 10 0 1 0 0 elevation_\$0 loadbang_05_\$0 empty -2 -10 0 12 #fcfcfc #000000 #000000 0 1;
#X text 499 227 Up;
#X text 308 227 Dn;
#N canvas 636 170 443 390 open_close_transmission 0;
#X obj 187 329 s pp_open_\$0;
#X obj 60 289 s pp_start_\$0;
#X obj 214 295 s pp_end_\$0;
#X msg 170 292 1;
#X msg 308 297 0;
#X obj 188 220 sel 1 0;
#X obj 134 255 t b b;
#X obj 278 257 t b b;
#X obj 96 110 change;
#X obj 96 34 r pp_activate_\$0;
#X connect 3 0 0 0;
#X connect 4 0 0 0;
#X connect 5 0 6 0;
#X connect 5 1 7 0;
#X connect 6 0 1 0;
#X connect 6 1 3 0;
#X connect 7 0 2 0;
#X connect 7 1 4 0;
#X connect 8 0 5 0;
#X connect 9 0 8 0;
#X restore 588 -137 pd open_close_transmission;
#N canvas 133 351 1489 531 ambi_bin_iem 0;
#X obj 522 182 inlet~;
#X msg 1099 424 vis \$1;
#X obj -111 354 r elevation_\$0;
#X msg 154 622 param_set 4 \$1;
#X obj 150 479 r yaw_\$0;
#X obj 150 532 r pitch_\$0;
#X obj 150 592 r roll_\$0;
#X obj 517 758 outlet~;
#X obj 632 757 outlet~;
#X msg -35 385 param_set 10 0.5;
#X text -25 79 SPARTA BINAURALIZER (azimuth) \; ------------------- \; 0.000-> -180 (right) \; 0.125-> -135 \; 0.250-> -90 \; 0.375-> -45 \; 0.500-> 0 \; 0.625-> 45 \; 0.750-> 90 \; 0.875-> 135 \; 1.000-> 180 (left) \;;
#X text 254 92 from 0-360 to 0-1;
#X obj -100 426 s elevation_normalized_\$0;
#X msg 367 473 param_set 7 \$1;
#X msg 701 422 param_set 10 0.5 \, param_set 11 0.5 \, param_set 12 0.5;
#X msg 701 346 param_set 4 0.2 \, param_set 5 0.2 \, param_set 6 0.1;
#X text 697 290 n_of_reflections;
#X text 699 327 room_dimension;
#X text 701 404 listener_position;
#X msg 700 385 param_set 9 0.5;
#X text 698 364 source_position_z;
#X obj 1265 177 inlet;
#X obj 1043 175 inlet;
#X msg 147 500 param_set 2 \$1;
#X msg 150 559 param_set 3 \$1;
#X obj 1101 385 tgl 20 0 empty empty empty 0 -10 0 12 #fcfcfc #000000 #000000 0 1;
#X obj 891 305 bng 20 250 50 0 empty empty empty 0 -10 0 12 #fcfcfc #000000 #000000;
#X obj 1284 416 switch~ 128 1 1;
#X msg 1350 339 set 128 1 1;
#X obj 1327 286 delay 100;
#X obj 522 207 *~ 1.6;
#X msg 367 497 param_set 8 \$1;
#X obj 263 444 azimuth_to_cart;
#X obj 352 391 hsl 170 20 0 1 0 0 empty empty empty -2 -10 0 12 #fcfcfc #000000 #000000 0 1;
#X obj 592 183 inlet;
#X text 398 370 source distance;
#X msg 696 260 param_set 23 1 \, param_set 24 1;
#X msg 699 309 param_set 13 0.08;
#X obj 275 116 r azimuth_to_plugin_\$0;
#X obj 1118 739 print;
#X msg 1108 536 param_set 2 0;
#X obj 1121 496 sel 0 1;
#X msg 1215 536 param_set 2 0.956522;
#X obj 1129 178 inlet;
#X obj 540 572 vstplugin~ -e ./plugins/libRoomEncoder.so 1 64;
#X f 94;
#X obj 539 625 vstplugin~ -e ./plugins/libSceneRotator.so 64 64;
#X f 94;
#X obj 538 676 vstplugin~ -e ./plugins/libBinauralDecoder.so 64 2;
#X f 92;
#X connect 0 0 30 0;
#X connect 1 0 44 0;
#X connect 1 0 45 0;
#X connect 1 0 46 0;
#X connect 2 0 9 0;
#X connect 3 0 45 0;
#X connect 4 0 23 0;
#X connect 5 0 24 0;
#X connect 6 0 3 0;
#X connect 13 0 44 0;
#X connect 14 0 44 0;
#X connect 15 0 44 0;
#X connect 19 0 44 0;
#X connect 21 0 29 0;
#X connect 21 0 27 0;
#X connect 22 0 1 0;
#X connect 23 0 45 0;
#X connect 24 0 45 0;
#X connect 25 0 1 0;
#X connect 26 0 37 0;
#X connect 26 0 15 0;
#X connect 26 0 19 0;
#X connect 26 0 14 0;
#X connect 26 0 36 0;
#X connect 28 0 27 0;
#X connect 29 0 28 0;
#X connect 29 0 26 0;
#X connect 30 0 44 0;
#X connect 31 0 44 0;
#X connect 32 0 31 0;
#X connect 32 1 13 0;
#X connect 33 0 32 1;
#X connect 34 0 33 0;
#X connect 36 0 44 0;
#X connect 37 0 44 0;
#X connect 38 0 32 0;
#X connect 40 0 46 0;
#X connect 41 0 40 0;
#X connect 41 1 42 0;
#X connect 42 0 46 0;
#X connect 43 0 41 0;
#X connect 44 0 45 0;
#X connect 44 1 45 1;
#X connect 44 2 45 2;
#X connect 44 3 45 3;
#X connect 44 4 45 4;
#X connect 44 5 45 5;
#X connect 44 6 45 6;
#X connect 44 7 45 7;
#X connect 44 8 45 8;
#X connect 44 9 45 9;
#X connect 44 10 45 10;
#X connect 44 11 45 11;
#X connect 44 12 45 12;
#X connect 44 13 45 13;
#X connect 44 14 45 14;
#X connect 44 15 45 15;
#X connect 44 16 45 16;
#X connect 44 17 45 17;
#X connect 44 18 45 18;
#X connect 44 19 45 19;
#X connect 44 20 45 20;
#X connect 44 21 45 21;
#X connect 44 22 45 22;
#X connect 44 23 45 23;
#X connect 44 24 45 24;
#X connect 44 25 45 25;
#X connect 44 26 45 26;
#X connect 44 27 45 27;
#X connect 44 28 45 28;
#X connect 44 29 45 29;
#X connect 44 30 45 30;
#X connect 44 31 45 31;
#X connect 44 32 45 32;
#X connect 44 33 45 33;
#X connect 44 34 45 34;
#X connect 44 35 45 35;
#X connect 44 36 45 36;
#X connect 44 37 45 37;
#X connect 44 38 45 38;
#X connect 44 39 45 39;
#X connect 44 40 45 40;
#X connect 44 41 45 41;
#X connect 44 42 45 42;
#X connect 44 43 45 43;
#X connect 44 44 45 44;
#X connect 44 45 45 45;
#X connect 44 46 45 46;
#X connect 44 47 45 47;
#X connect 44 48 45 48;
#X connect 44 49 45 49;
#X connect 44 50 45 50;
#X connect 44 51 45 51;
#X connect 44 52 45 52;
#X connect 44 53 45 53;
#X connect 44 54 45 54;
#X connect 44 55 45 55;
#X connect 44 56 45 56;
#X connect 44 57 45 57;
#X connect 44 58 45 58;
#X connect 44 59 45 59;
#X connect 44 60 45 60;
#X connect 44 61 45 61;
#X connect 44 62 45 62;
#X connect 44 63 45 63;
#X connect 45 0 46 0;
#X connect 45 1 46 1;
#X connect 45 2 46 2;
#X connect 45 3 46 3;
#X connect 45 4 46 4;
#X connect 45 5 46 5;
#X connect 45 6 46 6;
#X connect 45 7 46 7;
#X connect 45 8 46 8;
#X connect 45 9 46 9;
#X connect 45 10 46 10;
#X connect 45 11 46 11;
#X connect 45 12 46 12;
#X connect 45 13 46 13;
#X connect 45 14 46 14;
#X connect 45 15 46 15;
#X connect 45 16 46 16;
#X connect 45 17 46 17;
#X connect 45 18 46 18;
#X connect 45 19 46 19;
#X connect 45 20 46 20;
#X connect 45 21 46 21;
#X connect 45 22 46 22;
#X connect 45 23 46 23;
#X connect 45 24 46 24;
#X connect 45 25 46 25;
#X connect 45 26 46 26;
#X connect 45 27 46 27;
#X connect 45 28 46 28;
#X connect 45 29 46 29;
#X connect 45 30 46 30;
#X connect 45 31 46 31;
#X connect 45 32 46 32;
#X connect 45 33 46 33;
#X connect 45 34 46 34;
#X connect 45 35 46 35;
#X connect 45 36 46 36;
#X connect 45 37 46 37;
#X connect 45 38 46 38;
#X connect 45 39 46 39;
#X connect 45 40 46 40;
#X connect 45 41 46 41;
#X connect 45 42 46 42;
#X connect 45 43 46 43;
#X connect 45 44 46 44;
#X connect 45 45 46 45;
#X connect 45 46 46 46;
#X connect 45 47 46 47;
#X connect 45 48 46 48;
#X connect 45 49 46 49;
#X connect 45 50 46 50;
#X connect 45 51 46 51;
#X connect 45 52 46 52;
#X connect 45 53 46 53;
#X connect 45 54 46 54;
#X connect 45 55 46 55;
#X connect 45 56 46 56;
#X connect 45 57 46 57;
#X connect 45 58 46 58;
#X connect 45 59 46 59;
#X connect 45 60 46 60;
#X connect 45 61 46 61;
#X connect 45 62 46 62;
#X connect 45 63 46 63;
#X connect 46 0 7 0;
#X connect 46 1 8 0;
#X connect 46 2 39 0;
#X restore -541 239 pd ambi_bin_iem;
#X obj -595 240 *~;
#X obj -161 -322 hsl 170 20 0 127 0 0 empty empty empty -2 -10 0 12 #fcfcfc #000000 #000000 0 1;
#X obj -164 -297 / 127;
#X obj -432 203 tgl 20 0 empty empty empty 0 -10 0 12 #fcfcfc #000000 #000000 0 1;
#X obj -489 203 tgl 20 0 empty empty empty 0 -10 0 12 #fcfcfc #000000 #000000 0 1;
#X obj -643 176 tgl 20 0 empty empty empty 0 -10 0 12 #fcfcfc #000000 #000000 0 1;
#X text -491 183 vis;
#X text -436 182 on;
#X obj 617 -26 r asterix_azimuth_\$0;
#X obj 597 194 spigot;
#X obj 527 196 tgl 15 0 empty loadbang_1_\$0 empty 0 -10 0 12 #fcfcfc #000000 #000000 0 1;
#X obj 712 117 % 360;
#X obj 714 140 / 360;
#X text 440 443 START/STOP REC;
#X obj -162 -382 loadbang;
#X obj -513 137 r open_binaural_\$0, f 19;
#X obj -393 178 r on_off_binaural_\$0;
#X obj -716 117 r on_off_binaural_\$0;
#X obj -716 142 expr 1 - $f1;
#X msg -162 -356 110;
#X text -105 -337 DISTANCE;
#X obj 1020 177 loadbang;
#X msg 1020 202 1;
#X msg 1020 231 \; pd dsp 1;
#X text 385 301 BINAURALIZER;
#X obj 837 261 spigot;
#X obj 838 185 + 180;
#X obj 838 210 % 360;
#X obj 837 236 / 360;
#X obj 526 241 tgl 15 0 empty loadbang_1_\$0 empty 0 -10 0 12 #fcfcfc #000000 #000000 0 1;
#X obj 838 158 r asterix_elevation_\$0;
#X obj 612 287 s elevation_\$0;
#X obj 353 -13 spigot;
#X obj 528 143 tgl 15 0 empty loadbang_1_\$0 empty 0 -10 0 12 #fcfcfc #000000 #000000 0 1;
#X text 384 211 Elevation:;
#X text 389 161 Azimuth:;
#X text 402 106 Pan:;
#X text 409 123 0°;
#X text 358 123 90°;
#X text 309 124 180°;
#X text 445 123 -90°;
#X text 488 124 -180°;
#X text 502 110 R;
#X text 315 110 L;
#X text 395 227 Center;
#X text 173 -261 Elevation \; .;
#X obj 353 -103 r cta_pan_\$0;
#X text 170 -338 Azimuth \; Arriva via UDP (4010) in range 0-360 orario orientato in base alla visione di torre (270*). L'azimuth è poi convertito in range 0-1 con 0.25 left \, 0.5 center e 0.75 right.;
#X obj 364 26 s pan_\$0;
#N canvas 0 0 1920 1089 pan_normalization 0;
#X obj 132 63 i;
#X obj 99 333 outlet;
#X obj 160 0 inlet;
#X obj 132 88 moses 0;
#X obj 58 142 / 160;
#X obj 201 141 / 160;
#X floatatom 201 166 5 0 0 0 - - - 0;
#X floatatom 58 167 5 0 0 0 - - - 0;
#X connect 0 0 3 0;
#X connect 2 0 0 0;
#X connect 3 0 4 0;
#X connect 3 1 5 0;
#X connect 4 0 7 0;
#X connect 5 0 6 0;
#X restore 346 -60 pd pan_normalization;
#X floatatom 455 -137 5 0 0 0 - - - 0;
#X obj -399 284 * 1.5;
#X obj -935 446 * 1.5;
#X text 175 -219 Pan \; Arriva via UDP in range [-X \, +X] che viene poi normalizzato nel range [0 \, 360] in base al fattore corretto;
#N canvas 50 121 450 300 calculate_azimuth_to_plugin 0;
#X obj 56 68 r azimuth_\$0;
#X obj 163 67 r pan_\$0;
#X obj 113 175 -;
#X obj 163 92 t b f;
#X floatatom 113 200 5 0 0 0 - - - 0;
#X obj 86 257 s azimuth_to_plugin_\$0;
#X obj 113 224 + 0.5;
#X connect 0 0 2 0;
#X connect 1 0 3 0;
#X connect 2 0 4 0;
#X connect 3 0 2 0;
#X connect 3 1 2 1;
#X connect 4 0 6 0;
#X connect 6 0 5 0;
#X restore 557 -109 pd calculate_azimuth_to_plugin;
#X obj -461 204 tgl 20 0 empty empty empty 0 -10 0 12 #fcfcfc #000000 #000000 0 1;
#X text -463 184 hp;
#X obj -464 159 r on_off_HpTF_\$0, f 19;
#X obj 388 347 tgl 20 0 on_off_HpTF_\$0 loadbang_1_\$0 empty 0 -10 0 12 #fcfcfc #000000 #000000 0 1;
#X text 411 347 HpTF;
#X obj -862 -94 *~;
#X obj -828 -94 * 1.5;
#X obj -807 -51 s~ apch_hp_\$0;
#X obj -828 -126 r apch_output_volume_\$0;
#X obj 175 264 tgl 20 0 cta_phone_open_\$0 cta_phone_\$0 empty 0 -10 0 12 #fcfcfc #000000 #000000 0 1;
#X obj 220 264 tgl 20 0 apch_phone_open_\$0 apch_phone_\$0 empty 0 -10 0 12 #fcfcfc #000000 #000000 0 1;
#X obj -336 457 *~;
#X obj -537 -226 pack 0 5;
#X obj -294 455 line~;
#X obj -297 399 r apch_phone_open_\$0;
#X obj -861 -137 *~;
#X obj -842 -169 line~;
#X obj -842 -251 r cta_phone_open_\$0;
#X text 440 419 OPEN RECORDING;
#N canvas 80 236 1920 969 example_voice 1;
#X obj 63 202 readsf~;
#X obj 182 120 bng 20 250 50 0 empty empty empty 0 -10 0 12 #fcfcfc #000000 #000000;
#X obj 167 86 spigot;
#X obj 237 31 tgl 20 0 empty empty empty 0 -10 0 12 #fcfcfc #000000 #000000 0 1;
#X obj 130 201 del 1000;
#X msg 214 121 stop;
#X obj 242 87 sel 0 1;
#X obj 31 248 s~ example_voice_\$0;
#X obj 290 35 r activate_example_voice_\$0;
#X msg 65 160 open ./samples/speaking.wav 30000 \, start;
#X connect 0 0 7 0;
#X connect 0 1 4 0;
#X connect 1 0 9 0;
#X connect 2 0 1 0;
#X connect 3 0 2 1;
#X connect 3 0 6 0;
#X connect 4 0 2 0;
#X connect 5 0 0 0;
#X connect 6 0 5 0;
#X connect 6 1 1 0;
#X connect 8 0 3 0;
#X connect 9 0 0 0;
#X restore 657 -81 pd example_voice;
#X obj 274 264 tgl 20 0 activate_example_voice_\$0 empty empty 0 -10 0 12 #fcfcfc #000000 #000000 0 1;
#X msg -541 -83 \$1 5;
#X msg -950 95 \$1 5;
#X msg -953 270 \$1 5;
#X msg -842 -225 \$1 5;
#X msg -297 428 \$1 5;
#X obj 908 -87 s loadbang_1_\$0;
#X obj 837 -117 loadbang;
#X msg 874 -87 1;
#X obj 908 -62 s loadbang_05_\$0;
#X obj 909 -37 s loadbang_0_\$0;
#X msg 875 -37 0;
#X msg 874 -62 0.5;
#X obj -969 555 dac~ 3;
#X obj -533 667 hip~ 5;
#X obj -480 666 hip~ 5;
#X obj -967 527 hip~ 5;
#X obj -539 695 dac~ 1, f 7;
#X obj -480 695 dac~ 2, f 7;
#X obj -862 -51 hip~ 5;
#X obj -864 -23 dac~ 4;
#X obj -964 -320 adc~ 1;
#X obj -658 -332 s~ pp_mic_\$0;
#X obj -863 -282 s~ cta_mic_\$0;
#X obj -577 -422 adc~ 3;
#X obj -298 371 s~ apch_mic_\$0;
#X obj -336 339 adc~ 4;
#X obj -514 -423 r~ example_voice_\$0;
#X obj -335 528 s~ rec_apch_\$0;
#N canvas 0 0 1005 634 display_ht 0;
#X obj 105 141 hsl 150 10 0 1 0 0 empty empty empty -2 -10 0 12 #fcfcfc #000000 #000000 0 1;
#X obj 105 172 hsl 150 10 0 1 0 0 empty empty empty -2 -10 0 12 #fcfcfc #000000 #000000 0 1;
#X obj 105 205 hsl 150 10 0 1 0 0 empty empty empty -2 -10 0 12 #fcfcfc #000000 #000000 0 1;
#X text 167 121 Yaw:;
#X text 160 153 Pitch:;
#X text 163 186 Roll:;
#X text 99 122 L;
#X text 245 121 R;
#X text 99 152 D;
#X text 245 154 U;
#X text 100 187 L;
#X text 246 187 R;
#X obj 211 -1 r yaw_\$0;
#X obj 284 -1 r pitch_\$0;
#X obj 371 0 r roll_\$0;
#X obj 211 29 spigot;
#X obj 284 29 spigot;
#X obj 371 29 spigot;
#X obj 241 103 tgl 15 0 empty empty empty 0 -10 0 12 #fcfcfc #000000 #000000 0 1;
#X obj 451 48 loadbang;
#X msg 451 73 1;
#X connect 12 0 15 0;
#X connect 13 0 16 0;
#X connect 14 0 17 0;
#X connect 15 0 0 0;
#X connect 16 0 1 0;
#X connect 17 0 2 0;
#X connect 18 0 17 1;
#X connect 18 0 16 1;
#X connect 18 0 15 1;
#X connect 19 0 20 0;
#X connect 20 0 18 0;
#X coords 0 -1 1 1 160 120 1 100 100;
#X restore 109 110 pd display_ht;
#X text 263 243 VOICE;
#X text 161 243 CTA(P);
#X text 206 243 APCH(P);
#X msg 272 19 0.5;
#X obj 617 11 + 0;
#X floatatom 800 -44 5 0 0 0 - - - 0;
#X obj 589 115 expr 360 - $f1;
#X obj 589 139 / 360;
#X obj 587 91 % 360;
#X obj 481 299 tgl 20 0 empty empty empty 0 -10 0 12 #fcfcfc #000000 #000000 0 1;
#X obj 650 10 * 180;
#X obj 710 89 spigot;
#X obj 589 66 spigot;
#X obj 481 325 tgl 20 0 empty empty empty 0 -10 0 12 #fcfcfc #000000 #000000 0 1;
#X obj 647 62 == 0;
#X obj 925 35 loadbang;
#X msg 925 60 0;
#X msg 925 85 1;
#X text 501 297 FR/BK;
#X text 500 328 CL/AN;
#X obj 254 -12 loadbang;
#X obj 509 12 loadbang;
#X msg 509 37 0;
#X connect 1 0 57 0;
#X connect 1 0 58 0;
#X connect 1 0 18 0;
#X connect 2 0 1 1;
#X connect 3 0 1 0;
#X connect 4 0 3 1;
#X connect 5 0 125 0;
#X connect 7 0 134 0;
#X connect 8 0 5 0;
#X connect 9 0 3 0;
#X connect 10 0 19 0;
#X connect 10 0 28 0;
#X connect 11 0 10 1;
#X connect 12 0 10 0;
#X connect 13 0 12 1;
#X connect 14 0 135 0;
#X connect 16 0 14 0;
#X connect 17 0 136 0;
#X connect 28 0 47 0;
#X connect 28 0 149 0;
#X connect 29 0 110 0;
#X connect 38 0 39 0;
#X connect 48 0 45 0;
#X connect 48 0 147 0;
#X connect 49 0 46 0;
#X connect 49 0 148 0;
#X connect 50 0 109 0;
#X connect 53 0 89 0;
#X connect 57 0 48 0;
#X connect 57 1 49 0;
#X connect 58 0 48 0;
#X connect 58 0 49 0;
#X connect 59 0 60 0;
#X connect 60 0 57 1;
#X connect 61 0 57 4;
#X connect 62 0 57 2;
#X connect 63 0 58 1;
#X connect 66 0 167 0;
#X connect 67 0 38 0;
#X connect 68 0 67 1;
#X connect 69 0 70 0;
#X connect 70 0 38 0;
#X connect 72 0 77 0;
#X connect 73 0 62 0;
#X connect 74 0 61 0;
#X connect 75 0 76 0;
#X connect 76 0 63 0;
#X connect 77 0 59 0;
#X connect 79 0 80 0;
#X connect 80 0 81 0;
#X connect 83 0 53 0;
#X connect 84 0 85 0;
#X connect 85 0 86 0;
#X connect 86 0 83 0;
#X connect 87 0 83 1;
#X connect 88 0 84 0;
#X connect 90 0 35 0;
#X connect 91 0 90 1;
#X connect 104 0 107 0;
#X connect 107 0 90 0;
#X connect 109 0 49 1;
#X connect 109 0 48 1;
#X connect 110 0 28 1;
#X connect 113 0 57 3;
#X connect 115 0 113 0;
#X connect 118 0 120 0;
#X connect 118 0 152 0;
#X connect 119 0 118 1;
#X connect 121 0 119 0;
#X connect 124 0 49 0;
#X connect 124 0 48 0;
#X connect 124 0 161 0;
#X connect 125 0 4 0;
#X connect 126 0 124 1;
#X connect 127 0 138 0;
#X connect 128 0 118 0;
#X connect 129 0 128 1;
#X connect 130 0 137 0;
#X connect 134 0 2 0;
#X connect 135 0 13 0;
#X connect 136 0 11 0;
#X connect 137 0 129 0;
#X connect 138 0 126 0;
#X connect 140 0 141 0;
#X connect 140 0 145 0;
#X connect 140 0 144 0;
#X connect 141 0 139 0;
#X connect 144 0 143 0;
#X connect 145 0 142 0;
#X connect 147 0 150 0;
#X connect 148 0 151 0;
#X connect 149 0 146 0;
#X connect 152 0 153 0;
#X connect 154 0 156 0;
#X connect 154 0 128 0;
#X connect 154 0 12 0;
#X connect 157 0 155 0;
#X connect 157 0 9 0;
#X connect 159 0 158 0;
#X connect 159 0 124 0;
#X connect 160 0 155 0;
#X connect 160 0 9 0;
#X connect 166 0 35 0;
#X connect 166 0 53 0;
#X connect 167 0 174 0;
#X connect 167 0 175 0;
#X connect 168 0 167 0;
#X connect 169 0 170 0;
#X connect 170 0 38 0;
#X connect 171 0 169 0;
#X connect 172 0 173 0;
#X connect 173 0 167 1;
#X connect 174 0 69 0;
#X connect 175 0 171 0;
#X connect 176 0 174 1;
#X connect 176 0 177 0;
#X connect 177 0 175 1;
#X connect 178 0 179 0;
#X connect 179 0 180 0;
#X connect 179 0 172 0;
#X connect 180 0 176 0;
#X connect 183 0 166 0;
#X connect 184 0 185 0;
#X connect 185 0 91 0;
#X connect 185 0 87 0;
#X coords 0 -1 1 1 450 370 1 100 100;
