#N canvas 0 0 1920 969 12;
#X obj 110 89 comport /dev/ttyACM0 115200;
#X msg 151 47 devicename /dev/ttyACM0;
#X msg 110 20 baud 115200;
#X obj 102 127 select 10 13;
#X obj 104 156 t b b;
#X obj 192 170 list prepend;
#X obj 273 128 r enqueue;
#X obj 191 210 s enqueue;
#X obj 102 223 list;
#X obj 102 248 fudiparse;
#X obj 102 274 unpack f f f;
#X obj 31 507 outlet;
#X obj 121 532 outlet;
#X obj 190 535 outlet;
#X obj 471 84 inlet;
#X text 466 61 center;
#X obj 92 386 -;
#X obj 140 387 -;
#X obj 190 387 -;
#X obj 109 340 f;
#X obj 152 339 f;
#X obj 204 339 f;
#X floatatom 92 411 5 0 0 0 - - - 0;
#X floatatom 140 412 5 0 0 0 - - - 0;
#X floatatom 190 412 5 0 0 0 - - - 0;
#X obj 471 109 bng 20 250 50 0 empty empty empty 0 -10 0 12 #fcfcfc #000000 #000000;
#X obj 333 279 loadbang;
#X msg 333 304 0;
#X obj 71 444 / 360;
#X obj 71 467 + 0.5;
#X obj 140 451 / 360;
#X obj 140 474 + 0.5;
#X obj 194 451 / 360;
#X obj 194 474 + 0.5;
#X connect 0 0 3 0;
#X connect 1 0 0 0;
#X connect 2 0 0 0;
#X connect 3 0 4 0;
#X connect 3 2 5 0;
#X connect 4 0 8 0;
#X connect 4 1 7 0;
#X connect 5 0 7 0;
#X connect 5 0 8 1;
#X connect 6 0 5 1;
#X connect 8 0 9 0;
#X connect 9 0 10 0;
#X connect 10 0 16 0;
#X connect 10 0 19 1;
#X connect 10 1 20 1;
#X connect 10 1 17 0;
#X connect 10 2 21 1;
#X connect 10 2 18 0;
#X connect 14 0 25 0;
#X connect 16 0 22 0;
#X connect 17 0 23 0;
#X connect 18 0 24 0;
#X connect 19 0 16 1;
#X connect 20 0 17 1;
#X connect 21 0 18 1;
#X connect 22 0 28 0;
#X connect 23 0 30 0;
#X connect 24 0 32 0;
#X connect 25 0 19 0;
#X connect 25 0 20 0;
#X connect 25 0 21 0;
#X connect 26 0 27 0;
#X connect 27 0 16 1;
#X connect 27 0 17 1;
#X connect 27 0 18 1;
#X connect 28 0 29 0;
#X connect 29 0 11 0;
#X connect 30 0 31 0;
#X connect 31 0 12 0;
#X connect 32 0 33 0;
#X connect 33 0 13 0;
