#N canvas 0 0 1920 969 12;
#X obj 552 308 f;
#X obj 605 346 *;
#X obj 605 424 +;
#X text 543 278 new;
#X text 646 281 alpha;
#X obj 655 309 f \$1;
#X obj 703 345 expr 1 - $f1;
#X obj 657 382 f;
#X obj 657 424 *;
#X obj 566 540 outlet;
#X obj 528 228 inlet;
#X obj 653 227 inlet;
#X obj 716 258 loadbang;
#X connect 0 0 1 0;
#X connect 1 0 2 0;
#X connect 2 0 7 0;
#X connect 2 0 9 0;
#X connect 5 0 1 1;
#X connect 5 0 6 0;
#X connect 6 0 8 1;
#X connect 7 0 8 0;
#X connect 8 0 2 1;
#X connect 10 0 0 0;
#X connect 11 0 5 0;
#X connect 12 0 5 0;
