#N canvas 397 46 1513 470 12;
#X obj 81 183 hsl 1400 20 0 1 0 0 empty yaw_fast_display_\$0 empty -2 -10 0 12 #fcfcfc #000000 #000000 0 1;
#X obj 81 203 hsl 1400 20 0 1 0 0 empty yaw_display_\$0 empty -2 -10 0 12 #dfdfdf #000000 #000000 0 1;
#X obj 81 223 hsl 1400 20 0 1 0 0 empty yaw_accurate_display_\$0 empty -2 -10 0 12 #fcfcfc #000000 #000000 0 1;
#X obj 81 277 hsl 1400 20 0 1 0 0 empty pitch_fast_display_\$0 empty -2 -10 0 12 #fcfcfc #000000 #000000 0 1;
#X obj 81 297 hsl 1400 20 0 1 0 0 empty pitch_display_\$0 empty -2 -10 0 12 #dfdfdf #000000 #000000 0 1;
#X obj 81 317 hsl 1400 20 0 1 0 0 empty pitch_accurate_display_\$0 empty -2 -10 0 12 #fcfcfc #000000 #000000 0 1;
#X obj 80 373 hsl 1400 20 0 1 0 0 empty roll_fast_display_\$0 empty -2 -10 0 12 #fcfcfc #000000 #000000 0 1;
#X obj 80 393 hsl 1400 20 0 1 0 0 empty roll_display_\$0 empty -2 -10 0 12 #dfdfdf #000000 #000000 0 1;
#X obj 80 413 hsl 1400 20 0 1 0 0 empty roll_accurate_display_\$0 empty -2 -10 0 12 #fcfcfc #000000 #000000 0 1;
#X text 46 184 fast;
#X text 18 224 accurate;
#X text 32 203 smooth;
#X text 46 277 fast;
#X text 18 317 accurate;
#X text 32 296 smooth;
#X text 45 372 fast;
#X text 17 412 accurate;
#X text 31 391 smooth;
#X text 82 158 yaw;
#X text 80 253 pitch;
#X text 80 350 roll;
#X obj 1411 23 loadbang;
#X msg 1411 48 \; pd dsp 1;
#N canvas 433 598 1501 898 guts 0;
#X obj 309 15 fudiparse;
#X obj 323 43 unpack 0 0 0;
#X obj 309 -11 netreceive -b -u 4020;
#X obj 625 68 expr 1 - $f1;
#X msg 1469 257 start;
#X msg 1480 293 stop;
#X obj 1276 350 writesf~ 2;
#X msg 1437 223 open latency.wav;
#X obj 732 121 s pitch_fast_\$0;
#X obj 625 120 s yaw_fast_\$0;
#X obj 849 121 s roll_fast_\$0;
#X obj 186 122 s yaw_accurate_\$0;
#X obj 316 122 s pitch_accurate_\$0;
#X obj 460 121 s roll_accurate_\$0;
#X obj 304 313 smooth, f 12;
#X obj 446 311 smooth, f 13;
#X obj 589 312 smooth, f 13;
#X obj 237 187 r yaw_accurate_\$0;
#X obj 268 215 r yaw_fast_\$0;
#X obj 383 186 r pitch_accurate_\$0;
#X obj 406 212 r pitch_fast_\$0;
#X obj 527 185 r roll_accurate_\$0;
#X obj 550 211 r roll_fast_\$0;
#X obj 906 561 netsend -u;
#X obj 906 457 pack 0 0 0;
#X msg 906 482 \$1 \$2 \$3;
#X obj 907 416 t b f;
#X obj 969 415 t b f;
#X obj 1275 190 r yaw_accurate_\$0;
#X obj 1323 222 r yaw_fast_\$0;
#X obj 1275 215 sig~;
#X obj 1323 247 sig~;
#X obj 299 365 s yaw_\$0;
#X obj 446 336 s pitch_\$0;
#X obj 589 337 s roll_\$0;
#X obj 839 374 r yaw_\$0;
#X obj 913 374 r pitch_\$0;
#X obj 996 373 r roll_\$0;
#X obj 1339 100 s pd;
#X msg 1339 67 midi-dialog \$1 0 0 0 0 0 0 0 0 \$1 0 0 0 0 0 0 0 0 2 2;
#X msg 1212 34 1;
#X msg 1247 34 2;
#X text 1092 35 1) Select MIDI;
#X text 1092 69 2) Connect host;
#X text 1093 103 3) Calibrate!;
#X text 826 -105 calibrate;
#X obj 790 77 expr 1 - $f1;
#X msg 1289 34 3;
#X msg 1021 446 disconnect \, connect 192.168.207.172 4020;
#X msg 1027 477 disconnect \, connect localhost 3001;
#X obj 779 -106 inlet;
#X obj 936 -104 inlet;
#X text 983 -103 connect;
#X obj 1064 -107 inlet;
#X obj 1064 -81 + 1;
#X text 1111 -106 midi;
#X obj 27 712 spigot;
#X obj 683 659 r display_\$0;
#X obj 75 712 spigot;
#X obj 123 712 spigot;
#X obj 241 718 spigot;
#X obj 289 718 spigot;
#X obj 337 718 spigot;
#X obj 456 716 spigot;
#X obj 504 716 spigot;
#X obj 552 716 spigot;
#X obj 36 609 r yaw_accurate_\$0;
#X obj 74 635 r yaw_fast_\$0;
#X obj 116 660 r yaw_\$0;
#X obj 305 653 r pitch_\$0;
#X obj 538 650 r roll_\$0;
#X obj 257 604 r pitch_accurate_\$0;
#X obj 280 630 r pitch_fast_\$0;
#X obj 493 598 r roll_accurate_\$0;
#X obj 516 624 r roll_fast_\$0;
#X obj 30 794 s yaw_accurate_display_\$0;
#X obj 68 820 s yaw_fast_display_\$0;
#X obj 110 845 s yaw_display_\$0;
#X obj 247 796 s pitch_accurate_display_\$0;
#X obj 270 822 s pitch_fast_display_\$0;
#X obj 295 845 s pitch_display_\$0;
#X obj 458 796 s roll_accurate_display_\$0;
#X obj 481 822 s roll_fast_display_\$0;
#X obj 503 848 s roll_display_\$0;
#X obj -22 155 hsl 170 20 0 1 0 0 empty empty empty -2 -10 0 12 #fcfcfc #000000 #000000 0 1;
#X obj -22 221 hsl 170 20 0 1 0 0 empty empty empty -2 -10 0 12 #fcfcfc #000000 #000000 0 1;
#X obj -21 275 hsl 170 20 0 1 0 0 empty empty empty -2 -10 0 12 #fcfcfc #000000 #000000 0 1;
#X text -97 156 filterAcc;
#X text -101 220 FilterFast;
#X text -101 276 FilterCorr;
#X obj 1208 -106 inlet;
#X obj 1208 -80 s mode_\$0;
#X obj 694 262 r mode_\$0;
#X msg -24 249 0.0111;
#X obj -86 50 loadbang;
#X msg -25 129 0.5;
#X msg -26 194 0.8;
#X obj 705 -28 supperware;
#X obj 536 -32 9150_parse;
#X obj 567 -102 bng 20 250 50 0 empty empty empty 0 -10 0 12 #fcfcfc #000000 #000000;
#X connect 0 0 1 0;
#X connect 1 0 11 0;
#X connect 1 1 12 0;
#X connect 1 2 13 0;
#X connect 2 0 0 0;
#X connect 3 0 9 0;
#X connect 4 0 6 0;
#X connect 5 0 6 0;
#X connect 7 0 6 0;
#X connect 14 0 32 0;
#X connect 15 0 33 0;
#X connect 16 0 34 0;
#X connect 17 0 14 0;
#X connect 18 0 14 1;
#X connect 19 0 15 0;
#X connect 20 0 15 1;
#X connect 21 0 16 0;
#X connect 22 0 16 1;
#X connect 24 0 25 0;
#X connect 25 0 23 0;
#X connect 26 0 24 0;
#X connect 26 1 24 1;
#X connect 27 0 24 0;
#X connect 27 1 24 2;
#X connect 28 0 30 0;
#X connect 29 0 31 0;
#X connect 30 0 6 0;
#X connect 31 0 6 1;
#X connect 35 0 24 0;
#X connect 36 0 26 0;
#X connect 37 0 27 0;
#X connect 39 0 38 0;
#X connect 40 0 39 0;
#X connect 41 0 39 0;
#X connect 46 0 10 0;
#X connect 47 0 39 0;
#X connect 48 0 23 0;
#X connect 49 0 23 0;
#X connect 50 0 97 1;
#X connect 51 0 48 0;
#X connect 51 0 97 0;
#X connect 53 0 54 0;
#X connect 54 0 39 0;
#X connect 56 0 75 0;
#X connect 57 0 56 1;
#X connect 57 0 58 1;
#X connect 57 0 65 1;
#X connect 57 0 64 1;
#X connect 57 0 63 1;
#X connect 57 0 62 1;
#X connect 57 0 61 1;
#X connect 57 0 60 1;
#X connect 57 0 59 1;
#X connect 58 0 76 0;
#X connect 59 0 77 0;
#X connect 60 0 78 0;
#X connect 61 0 79 0;
#X connect 62 0 80 0;
#X connect 63 0 81 0;
#X connect 64 0 82 0;
#X connect 65 0 83 0;
#X connect 66 0 56 0;
#X connect 67 0 58 0;
#X connect 68 0 59 0;
#X connect 69 0 62 0;
#X connect 70 0 65 0;
#X connect 71 0 60 0;
#X connect 72 0 61 0;
#X connect 73 0 63 0;
#X connect 74 0 64 0;
#X connect 84 0 14 2;
#X connect 85 0 14 3;
#X connect 86 0 14 4;
#X connect 90 0 91 0;
#X connect 92 0 14 6;
#X connect 92 0 16 6;
#X connect 92 0 15 6;
#X connect 93 0 86 0;
#X connect 94 0 95 0;
#X connect 94 0 93 0;
#X connect 94 0 96 0;
#X connect 95 0 84 0;
#X connect 96 0 85 0;
#X connect 97 0 3 0;
#X connect 97 1 8 0;
#X connect 97 2 46 0;
#X connect 98 0 3 0;
#X connect 98 1 8 0;
#X connect 98 2 10 0;
#X connect 99 0 98 0;
#X restore 655 130 pd guts;
#X obj 605 24 bng 80 250 50 0 empty empty empty 0 -10 0 12 #fcfcfc #000000 #000000;
#X text 795 12 connect;
#X obj 795 35 bng 20 250 50 0 empty empty empty 0 -10 0 12 #fcfcfc #000000 #000000;
#X obj 794 81 hradio 20 1 0 3 empty empty empty 0 -10 0 12 #fcfcfc #000000 #000000 0;
#X text 798 60 midi;
#X text 612 56 calibrate;
#X obj 945 75 tgl 20 0 display_\$0 empty empty 0 -10 0 12 #fcfcfc #000000 #000000 0 1;
#X text 937 50 display;
#X obj 795 126 hradio 20 1 0 3 empty empty empty 0 -10 0 12 #fcfcfc #000000 #000000 0;
#X text 797 104 mode;
#X text 868 126 0:acc 1:fast 2:both;
#X text 727 164 center |;
#X connect 21 0 22 0;
#X connect 24 0 23 0;
#X connect 26 0 23 1;
#X connect 27 0 23 2;
#X connect 32 0 23 3;
