#N canvas 576 102 1920 969 12;
#X obj 207 13 inlet;
#X obj 30 17 inlet;
#X text 202 -8 fast;
#X text 20 -7 accurate;
#X obj 622 12 inlet;
#X obj 286 13 inlet;
#X obj 190 447 +;
#X obj 547 12 inlet;
#X text 540 -7 latency;
#X text 619 -10 on/off;
#X text 269 -9 filterAcc;
#X obj 367 12 inlet;
#X text 351 -7 filterFast;
#X obj 459 13 inlet;
#X text 452 -6 filterCorr;
#X obj 44 113 moses 0.4;
#X obj 44 140 moses 0.6;
#X obj 103 615 outlet;
#X text 106 649 smooth;
#X obj 25 493 spigot;
#X obj 99 494 spigot;
#X obj 189 497 spigot;
#X obj 61 464 == 0;
#X obj 135 466 == 1;
#X obj 230 429 r mode_\$0;
#X obj 116 435 r mode_\$0;
#X obj 37 436 r mode_\$0;
#X obj 622 37 s mode_\$0;
#X obj 249 289 -;
#X obj 44 205 EMA 1;
#X obj 276 203 EMA 1;
#X obj 249 314 EMA 1;
#X obj 363 45 s filt_f_\$0;
#X obj 262 46 s filt_a_\$0;
#X obj 461 45 s filt_c_\$0;
#X obj 316 276 r filt_c_\$0;
#X obj 320 169 r filt_f_\$0;
#X obj 76 173 r filt_a_\$0;
#X obj 230 468 == 2;
#X obj 56 261 bng 20 250 50 0 empty empty empty 0 -10 0 12 #fcfcfc #000000 #000000;
#X obj 276 124 pipe 40;
#X connect 0 0 6 0;
#X connect 0 0 20 0;
#X connect 0 0 40 0;
#X connect 1 0 15 0;
#X connect 1 0 19 0;
#X connect 4 0 27 0;
#X connect 5 0 33 0;
#X connect 6 0 21 0;
#X connect 7 0 40 1;
#X connect 11 0 32 0;
#X connect 13 0 34 0;
#X connect 15 1 16 0;
#X connect 16 0 29 0;
#X connect 19 0 17 0;
#X connect 20 0 17 0;
#X connect 21 0 17 0;
#X connect 22 0 19 1;
#X connect 23 0 20 1;
#X connect 24 0 38 0;
#X connect 25 0 23 0;
#X connect 26 0 22 0;
#X connect 28 0 31 0;
#X connect 29 0 28 0;
#X connect 29 0 39 0;
#X connect 30 0 28 1;
#X connect 31 0 6 1;
#X connect 35 0 31 1;
#X connect 36 0 30 1;
#X connect 37 0 29 1;
#X connect 38 0 21 1;
#X connect 40 0 30 0;
